# xmcd CD database file
#
# Track frame offsets:
#	150
#	19707
#	36765
#
# Disc length: 754 seconds
#
# Revision: 6
# Processed by: cddbd v1.5PL3 Copyright (c) Steve Scherf et al.
# Submitted via: CDex 1.50Beta7
#
DISCID=1902f003
DTITLE=Steady&Co. - 春夏秋冬
DYEAR=2001
DGENRE=JPop
TTITLE0=春夏秋冬
TTITLE1=風まかせ
TTITLE2=Fall Time Flow
EXTD=YEAR: 2001
EXTT0=
EXTT1=
EXTT2=
PLAYORDER=
